<?xml version="1.0" encoding="UTF-8"?>
<!DOCTYPE svg PUBLIC "-//W3C//DTD SVG 1.1//EN" "http://www.w3.org/Graphics/SVG/1.1/DTD/svg11.dtd">
<!-- Creator: CorelDRAW X8 -->
<svg xmlns="http://www.w3.org/2000/svg" xml:space="preserve" width="1920px" height="85px" version="1.1" style="shape-rendering:geometricPrecision; text-rendering:geometricPrecision; image-rendering:optimizeQuality; fill-rule:evenodd; clip-rule:evenodd"
viewBox="0 0 1920 85"
 xmlns:xlink="http://www.w3.org/1999/xlink">
 <defs>
  <style type="text/css">
   <![CDATA[
    .fil1 {fill:whitesmoke}
    .fil0 {fill:white}
   ]]>
  </style>
 </defs>
 <g id="Слой_x0020_1">
  <metadata id="CorelCorpID_0Corel-Layer"/>
  <path class="fil0" d="M0 0l1920 0 0 0 -1920 0zm1920 8l0 77 -1920 0 0 -8c63,-40 254,-69 480,-69 196,0 350,13 480,35 130,22 284,35 480,35 226,0 417,-29 480,-70z"/>
  <path class="fil1" d="M0 77l0 -77 1920 0 0 8c-63,41 -254,70 -480,70 -196,0 -350,-13 -480,-35 -130,-22 -284,-35 -480,-35 -226,0 -417,29 -480,69z"/>
 </g>
</svg>
